{
	"asset":{
		"generator":"Khronos glTF Blender I/O v3.5.30",
		"version":"2.0"
	},
	"scene":0,
	"scenes":[
		{
			"name":"Scene",
			"nodes":[
				0,
				1,
				2,
				3,
				4,
				5,
				6,
				7,
				8,
				9,
				10
			]
		}
	],
	"nodes":[
		{
			"mesh":0,
			"name":"Cube"
		},
		{
			"mesh":1,
			"name":"Cube.001",
			"scale":[
				2.0061089992523193,
				2.0061089992523193,
				2.0061089992523193
			],
			"translation":[
				-2.0400002002716064,
				7.000000476837158,
				-58
			]
		},
		{
			"mesh":2,
			"name":"Cube.002",
			"scale":[
				2.0061089992523193,
				2.0061089992523193,
				2.0061089992523193
			],
			"translation":[
				-2,
				7.000000476837158,
				-72
			]
		},
		{
			"mesh":3,
			"name":"Cube.003",
			"scale":[
				2.0061089992523193,
				2.0061089992523193,
				2.0061089992523193
			],
			"translation":[
				12,
				7.000000476837158,
				-72
			]
		},
		{
			"mesh":4,
			"name":"Cube.004",
			"scale":[
				2.0061089992523193,
				2.0061089992523193,
				2.0061089992523193
			],
			"translation":[
				-16,
				7.000000476837158,
				-72
			]
		},
		{
			"mesh":5,
			"name":"Cube.005",
			"scale":[
				2.0061089992523193,
				2.0061089992523193,
				2.0061089992523193
			],
			"translation":[
				-16,
				7.000000476837158,
				-86.07640838623047
			]
		},
		{
			"mesh":6,
			"name":"Cube.006",
			"scale":[
				2.0061089992523193,
				2.0061089992523193,
				2.0061089992523193
			],
			"translation":[
				12,
				7.000000476837158,
				-86.07640838623047
			]
		},
		{
			"mesh":7,
			"name":"Cube.007",
			"scale":[
				2.0061089992523193,
				2.0061089992523193,
				2.0061089992523193
			],
			"translation":[
				-2.0400002002716064,
				7.000000476837158,
				-86.07640838623047
			]
		},
		{
			"mesh":8,
			"name":"Cube.008",
			"translation":[
				-16,
				-2.3486289978027344,
				-93
			]
		},
		{
			"mesh":9,
			"name":"Cube.009",
			"translation":[
				12,
				-2.3486289978027344,
				-93
			]
		},
		{
			"mesh":10,
			"name":"Cube.010",
			"translation":[
				-1.8546743392944336,
				-2.3486289978027344,
				-92.86991119384766
			]
		}
	],
	"materials":[
		{
			"doubleSided":true,
			"name":"Material.001",
			"pbrMetallicRoughness":{
				"baseColorTexture":{
					"index":0
				},
				"metallicFactor":0,
				"roughnessFactor":0.5
			}
		},
		{
			"doubleSided":true,
			"name":"Material.002",
			"pbrMetallicRoughness":{
				"baseColorTexture":{
					"index":1
				},
				"metallicFactor":0,
				"roughnessFactor":0.5
			}
		}
	],
	"meshes":[
		{
			"name":"Cube.001",
			"primitives":[
				{
					"attributes":{
						"POSITION":0,
						"TEXCOORD_0":1,
						"NORMAL":2
					},
					"indices":3,
					"material":0
				}
			]
		},
		{
			"name":"Cube.003",
			"primitives":[
				{
					"attributes":{
						"POSITION":4,
						"TEXCOORD_0":5,
						"NORMAL":6
					},
					"indices":7,
					"material":1
				}
			]
		},
		{
			"name":"Cube.004",
			"primitives":[
				{
					"attributes":{
						"POSITION":8,
						"TEXCOORD_0":9,
						"NORMAL":10
					},
					"indices":11,
					"material":1
				}
			]
		},
		{
			"name":"Cube.005",
			"primitives":[
				{
					"attributes":{
						"POSITION":12,
						"TEXCOORD_0":13,
						"NORMAL":14
					},
					"indices":11,
					"material":1
				}
			]
		},
		{
			"name":"Cube.006",
			"primitives":[
				{
					"attributes":{
						"POSITION":15,
						"TEXCOORD_0":16,
						"NORMAL":17
					},
					"indices":11,
					"material":1
				}
			]
		},
		{
			"name":"Cube.008",
			"primitives":[
				{
					"attributes":{
						"POSITION":18,
						"TEXCOORD_0":19,
						"NORMAL":20
					},
					"indices":11,
					"material":1
				}
			]
		},
		{
			"name":"Cube.009",
			"primitives":[
				{
					"attributes":{
						"POSITION":21,
						"TEXCOORD_0":22,
						"NORMAL":23
					},
					"indices":11,
					"material":1
				}
			]
		},
		{
			"name":"Cube.010",
			"primitives":[
				{
					"attributes":{
						"POSITION":24,
						"TEXCOORD_0":25,
						"NORMAL":26
					},
					"indices":11,
					"material":1
				}
			]
		},
		{
			"name":"Cube.012",
			"primitives":[
				{
					"attributes":{
						"POSITION":27,
						"TEXCOORD_0":28,
						"NORMAL":29
					},
					"indices":30,
					"material":1
				}
			]
		},
		{
			"name":"Cube.013",
			"primitives":[
				{
					"attributes":{
						"POSITION":31,
						"TEXCOORD_0":32,
						"NORMAL":33
					},
					"indices":30,
					"material":1
				}
			]
		},
		{
			"name":"Cube.014",
			"primitives":[
				{
					"attributes":{
						"POSITION":34,
						"TEXCOORD_0":35,
						"NORMAL":36
					},
					"indices":30,
					"material":1
				}
			]
		}
	],
	"textures":[
		{
			"sampler":0,
			"source":0
		},
		{
			"sampler":0,
			"source":0
		}
	],
	"images":[
		{
			"bufferView":4,
			"mimeType":"image/png",
			"name":"boardfix"
		}
	],
	"accessors":[
		{
			"bufferView":0,
			"componentType":5126,
			"count":730,
			"max":[
				17.999343872070312,
				9,
				2
			],
			"min":[
				-17.999343872070312,
				-2,
				-56.00666809082031
			],
			"type":"VEC3"
		},
		{
			"bufferView":1,
			"componentType":5126,
			"count":730,
			"type":"VEC2"
		},
		{
			"bufferView":2,
			"componentType":5126,
			"count":730,
			"type":"VEC3"
		},
		{
			"bufferView":3,
			"componentType":5123,
			"count":1536,
			"type":"SCALAR"
		},
		{
			"bufferView":5,
			"componentType":5126,
			"count":40,
			"max":[
				1,
				1,
				1
			],
			"min":[
				-1,
				-1,
				-1
			],
			"type":"VEC3"
		},
		{
			"bufferView":6,
			"componentType":5126,
			"count":40,
			"type":"VEC2"
		},
		{
			"bufferView":7,
			"componentType":5126,
			"count":40,
			"type":"VEC3"
		},
		{
			"bufferView":8,
			"componentType":5123,
			"count":60,
			"type":"SCALAR"
		},
		{
			"bufferView":9,
			"componentType":5126,
			"count":40,
			"max":[
				1,
				1,
				1
			],
			"min":[
				-1,
				-1,
				-1
			],
			"type":"VEC3"
		},
		{
			"bufferView":10,
			"componentType":5126,
			"count":40,
			"type":"VEC2"
		},
		{
			"bufferView":11,
			"componentType":5126,
			"count":40,
			"type":"VEC3"
		},
		{
			"bufferView":12,
			"componentType":5123,
			"count":60,
			"type":"SCALAR"
		},
		{
			"bufferView":13,
			"componentType":5126,
			"count":40,
			"max":[
				1,
				1,
				1
			],
			"min":[
				-1,
				-1,
				-1
			],
			"type":"VEC3"
		},
		{
			"bufferView":14,
			"componentType":5126,
			"count":40,
			"type":"VEC2"
		},
		{
			"bufferView":15,
			"componentType":5126,
			"count":40,
			"type":"VEC3"
		},
		{
			"bufferView":16,
			"componentType":5126,
			"count":40,
			"max":[
				1,
				1,
				1
			],
			"min":[
				-1,
				-1,
				-1
			],
			"type":"VEC3"
		},
		{
			"bufferView":17,
			"componentType":5126,
			"count":40,
			"type":"VEC2"
		},
		{
			"bufferView":18,
			"componentType":5126,
			"count":40,
			"type":"VEC3"
		},
		{
			"bufferView":19,
			"componentType":5126,
			"count":40,
			"max":[
				1,
				1,
				1
			],
			"min":[
				-1,
				-1,
				-1
			],
			"type":"VEC3"
		},
		{
			"bufferView":20,
			"componentType":5126,
			"count":40,
			"type":"VEC2"
		},
		{
			"bufferView":21,
			"componentType":5126,
			"count":40,
			"type":"VEC3"
		},
		{
			"bufferView":22,
			"componentType":5126,
			"count":40,
			"max":[
				1,
				1,
				1
			],
			"min":[
				-1,
				-1,
				-1
			],
			"type":"VEC3"
		},
		{
			"bufferView":23,
			"componentType":5126,
			"count":40,
			"type":"VEC2"
		},
		{
			"bufferView":24,
			"componentType":5126,
			"count":40,
			"type":"VEC3"
		},
		{
			"bufferView":25,
			"componentType":5126,
			"count":40,
			"max":[
				1,
				1,
				1
			],
			"min":[
				-1,
				-1,
				-1
			],
			"type":"VEC3"
		},
		{
			"bufferView":26,
			"componentType":5126,
			"count":40,
			"type":"VEC2"
		},
		{
			"bufferView":27,
			"componentType":5126,
			"count":40,
			"type":"VEC3"
		},
		{
			"bufferView":28,
			"componentType":5126,
			"count":24,
			"max":[
				1.819318175315857,
				2,
				2.7803955078125
			],
			"min":[
				-2.1806817054748535,
				-2,
				-1.2196044921875
			],
			"type":"VEC3"
		},
		{
			"bufferView":29,
			"componentType":5126,
			"count":24,
			"type":"VEC2"
		},
		{
			"bufferView":30,
			"componentType":5126,
			"count":24,
			"type":"VEC3"
		},
		{
			"bufferView":31,
			"componentType":5123,
			"count":36,
			"type":"SCALAR"
		},
		{
			"bufferView":32,
			"componentType":5126,
			"count":24,
			"max":[
				1.819318175315857,
				2,
				2.7803955078125
			],
			"min":[
				-2.1806817054748535,
				-2,
				-1.2196044921875
			],
			"type":"VEC3"
		},
		{
			"bufferView":33,
			"componentType":5126,
			"count":24,
			"type":"VEC2"
		},
		{
			"bufferView":34,
			"componentType":5126,
			"count":24,
			"type":"VEC3"
		},
		{
			"bufferView":35,
			"componentType":5126,
			"count":24,
			"max":[
				1.819318175315857,
				2,
				2.7803955078125
			],
			"min":[
				-2.1806817054748535,
				-2,
				-1.2196044921875
			],
			"type":"VEC3"
		},
		{
			"bufferView":36,
			"componentType":5126,
			"count":24,
			"type":"VEC2"
		},
		{
			"bufferView":37,
			"componentType":5126,
			"count":24,
			"type":"VEC3"
		}
	],
	"bufferViews":[
		{
			"buffer":0,
			"byteLength":8760,
			"byteOffset":0,
			"target":34962
		},
		{
			"buffer":0,
			"byteLength":5840,
			"byteOffset":8760,
			"target":34962
		},
		{
			"buffer":0,
			"byteLength":8760,
			"byteOffset":14600,
			"target":34962
		},
		{
			"buffer":0,
			"byteLength":3072,
			"byteOffset":23360,
			"target":34963
		},
		{
			"buffer":0,
			"byteLength":2212574,
			"byteOffset":26432
		},
		{
			"buffer":0,
			"byteLength":480,
			"byteOffset":2239008,
			"target":34962
		},
		{
			"buffer":0,
			"byteLength":320,
			"byteOffset":2239488,
			"target":34962
		},
		{
			"buffer":0,
			"byteLength":480,
			"byteOffset":2239808,
			"target":34962
		},
		{
			"buffer":0,
			"byteLength":120,
			"byteOffset":2240288,
			"target":34963
		},
		{
			"buffer":0,
			"byteLength":480,
			"byteOffset":2240408,
			"target":34962
		},
		{
			"buffer":0,
			"byteLength":320,
			"byteOffset":2240888,
			"target":34962
		},
		{
			"buffer":0,
			"byteLength":480,
			"byteOffset":2241208,
			"target":34962
		},
		{
			"buffer":0,
			"byteLength":120,
			"byteOffset":2241688,
			"target":34963
		},
		{
			"buffer":0,
			"byteLength":480,
			"byteOffset":2241808,
			"target":34962
		},
		{
			"buffer":0,
			"byteLength":320,
			"byteOffset":2242288,
			"target":34962
		},
		{
			"buffer":0,
			"byteLength":480,
			"byteOffset":2242608,
			"target":34962
		},
		{
			"buffer":0,
			"byteLength":480,
			"byteOffset":2243088,
			"target":34962
		},
		{
			"buffer":0,
			"byteLength":320,
			"byteOffset":2243568,
			"target":34962
		},
		{
			"buffer":0,
			"byteLength":480,
			"byteOffset":2243888,
			"target":34962
		},
		{
			"buffer":0,
			"byteLength":480,
			"byteOffset":2244368,
			"target":34962
		},
		{
			"buffer":0,
			"byteLength":320,
			"byteOffset":2244848,
			"target":34962
		},
		{
			"buffer":0,
			"byteLength":480,
			"byteOffset":2245168,
			"target":34962
		},
		{
			"buffer":0,
			"byteLength":480,
			"byteOffset":2245648,
			"target":34962
		},
		{
			"buffer":0,
			"byteLength":320,
			"byteOffset":2246128,
			"target":34962
		},
		{
			"buffer":0,
			"byteLength":480,
			"byteOffset":2246448,
			"target":34962
		},
		{
			"buffer":0,
			"byteLength":480,
			"byteOffset":2246928,
			"target":34962
		},
		{
			"buffer":0,
			"byteLength":320,
			"byteOffset":2247408,
			"target":34962
		},
		{
			"buffer":0,
			"byteLength":480,
			"byteOffset":2247728,
			"target":34962
		},
		{
			"buffer":0,
			"byteLength":288,
			"byteOffset":2248208,
			"target":34962
		},
		{
			"buffer":0,
			"byteLength":192,
			"byteOffset":2248496,
			"target":34962
		},
		{
			"buffer":0,
			"byteLength":288,
			"byteOffset":2248688,
			"target":34962
		},
		{
			"buffer":0,
			"byteLength":72,
			"byteOffset":2248976,
			"target":34963
		},
		{
			"buffer":0,
			"byteLength":288,
			"byteOffset":2249048,
			"target":34962
		},
		{
			"buffer":0,
			"byteLength":192,
			"byteOffset":2249336,
			"target":34962
		},
		{
			"buffer":0,
			"byteLength":288,
			"byteOffset":2249528,
			"target":34962
		},
		{
			"buffer":0,
			"byteLength":288,
			"byteOffset":2249816,
			"target":34962
		},
		{
			"buffer":0,
			"byteLength":192,
			"byteOffset":2250104,
			"target":34962
		},
		{
			"buffer":0,
			"byteLength":288,
			"byteOffset":2250296,
			"target":34962
		}
	],
	"samplers":[
		{
			"magFilter":9729,
			"minFilter":9987
		}
	],
	"buffers":[
		{
			"byteLength":2250584,
			"uri":"data:application/octet-stream;base64,"
		}
	]
}
