{
	"asset":{
		"generator":"Khronos glTF Blender I/O v3.5.30",
		"version":"2.0"
	},
	"scene":0,
	"scenes":[
		{
			"name":"Scene",
			"nodes":[
				0,
				1,
				2,
				3,
				4,
				5,
				6,
				7,
				8,
				9,
				10
			]
		}
	],
	"nodes":[
		{
			"mesh":0,
			"name":"Cylinder",
			"translation":[
				0,
				23.058637619018555,
				15
			]
		},
		{
			"mesh":1,
			"name":"Cube",
			"translation":[
				-1.5901999473571777,
				12.600931167602539,
				0.13070137798786163
			]
		},
		{
			"mesh":0,
			"name":"Cylinder.001",
			"translation":[
				0,
				23.058637619018555,
				7
			]
		},
		{
			"mesh":0,
			"name":"Cylinder.002",
			"translation":[
				0,
				23.058637619018555,
				-1
			]
		},
		{
			"mesh":0,
			"name":"Cylinder.003",
			"translation":[
				0,
				31.058637619018555,
				-1
			]
		},
		{
			"mesh":0,
			"name":"Cylinder.004",
			"translation":[
				0,
				31.058637619018555,
				7
			]
		},
		{
			"mesh":0,
			"name":"Cylinder.005",
			"translation":[
				0,
				31.058637619018555,
				15
			]
		},
		{
			"mesh":0,
			"name":"Cylinder.006",
			"translation":[
				0,
				15.058637619018555,
				15
			]
		},
		{
			"mesh":0,
			"name":"Cylinder.007",
			"translation":[
				0,
				15.058637619018555,
				7
			]
		},
		{
			"mesh":0,
			"name":"Cylinder.008",
			"translation":[
				0,
				15.058637619018555,
				-1
			]
		},
		{
			"mesh":2,
			"name":"Cube.001",
			"translation":[
				0,
				0,
				6
			]
		}
	],
	"materials":[
		{
			"doubleSided":true,
			"name":"Material.004",
			"pbrMetallicRoughness":{
				"baseColorTexture":{
					"index":0
				},
				"metallicFactor":0,
				"roughnessFactor":0.5
			}
		}
	],
	"meshes":[
		{
			"name":"Cylinder",
			"primitives":[
				{
					"attributes":{
						"POSITION":0,
						"TEXCOORD_0":1,
						"NORMAL":2
					},
					"indices":3,
					"material":0
				}
			]
		},
		{
			"name":"Cube.001",
			"primitives":[
				{
					"attributes":{
						"POSITION":4,
						"TEXCOORD_0":5,
						"NORMAL":6
					},
					"indices":7,
					"material":0
				}
			]
		},
		{
			"name":"Cube",
			"primitives":[
				{
					"attributes":{
						"POSITION":8,
						"TEXCOORD_0":9,
						"NORMAL":10
					},
					"indices":11,
					"material":0
				}
			]
		}
	],
	"textures":[
		{
			"sampler":0,
			"source":0
		}
	],
	"images":[
		{
			"bufferView":4,
			"mimeType":"image/png",
			"name":"level_2_boardfix"
		}
	],
	"accessors":[
		{
			"bufferView":0,
			"componentType":5126,
			"count":240,
			"max":[
				0.784467339515686,
				3.5201468467712402,
				3.9021127223968506
			],
			"min":[
				-0.784467339515686,
				-3.9021129608154297,
				-3.9021127223968506
			],
			"type":"VEC3"
		},
		{
			"bufferView":1,
			"componentType":5126,
			"count":240,
			"type":"VEC2"
		},
		{
			"bufferView":2,
			"componentType":5126,
			"count":240,
			"type":"VEC3"
		},
		{
			"bufferView":3,
			"componentType":5123,
			"count":468,
			"type":"SCALAR"
		},
		{
			"bufferView":5,
			"componentType":5126,
			"count":135,
			"max":[
				4,
				22.700965881347656,
				20.86168670654297
			],
			"min":[
				-1,
				-7.725437164306641,
				-6.792384147644043
			],
			"type":"VEC3"
		},
		{
			"bufferView":6,
			"componentType":5126,
			"count":135,
			"type":"VEC2"
		},
		{
			"bufferView":7,
			"componentType":5126,
			"count":135,
			"type":"VEC3"
		},
		{
			"bufferView":8,
			"componentType":5123,
			"count":324,
			"type":"SCALAR"
		},
		{
			"bufferView":9,
			"componentType":5126,
			"count":24,
			"max":[
				10.992376327514648,
				1,
				14
			],
			"min":[
				2,
				-1,
				-11.694541931152344
			],
			"type":"VEC3"
		},
		{
			"bufferView":10,
			"componentType":5126,
			"count":24,
			"type":"VEC2"
		},
		{
			"bufferView":11,
			"componentType":5126,
			"count":24,
			"type":"VEC3"
		},
		{
			"bufferView":12,
			"componentType":5123,
			"count":36,
			"type":"SCALAR"
		}
	],
	"bufferViews":[
		{
			"buffer":0,
			"byteLength":2880,
			"byteOffset":0,
			"target":34962
		},
		{
			"buffer":0,
			"byteLength":1920,
			"byteOffset":2880,
			"target":34962
		},
		{
			"buffer":0,
			"byteLength":2880,
			"byteOffset":4800,
			"target":34962
		},
		{
			"buffer":0,
			"byteLength":936,
			"byteOffset":7680,
			"target":34963
		},
		{
			"buffer":0,
			"byteLength":2108008,
			"byteOffset":8616
		},
		{
			"buffer":0,
			"byteLength":1620,
			"byteOffset":2116624,
			"target":34962
		},
		{
			"buffer":0,
			"byteLength":1080,
			"byteOffset":2118244,
			"target":34962
		},
		{
			"buffer":0,
			"byteLength":1620,
			"byteOffset":2119324,
			"target":34962
		},
		{
			"buffer":0,
			"byteLength":648,
			"byteOffset":2120944,
			"target":34963
		},
		{
			"buffer":0,
			"byteLength":288,
			"byteOffset":2121592,
			"target":34962
		},
		{
			"buffer":0,
			"byteLength":192,
			"byteOffset":2121880,
			"target":34962
		},
		{
			"buffer":0,
			"byteLength":288,
			"byteOffset":2122072,
			"target":34962
		},
		{
			"buffer":0,
			"byteLength":72,
			"byteOffset":2122360,
			"target":34963
		}
	],
	"samplers":[
		{
			"magFilter":9729,
			"minFilter":9987
		}
	],
	"buffers":[
		{
			"byteLength":2122432,
			"uri":"data:application/octet-stream;base64,"
		}
	]
}
