{
	"asset":{
		"generator":"Khronos glTF Blender I/O v3.5.30",
		"version":"2.0"
	},
	"scene":0,
	"scenes":[
		{
			"name":"Scene",
			"nodes":[
				0
			]
		}
	],
	"nodes":[
		{
			"mesh":0,
			"name":"Cube"
		}
	],
	"materials":[
		{
			"doubleSided":true,
			"name":"Material.001",
			"pbrMetallicRoughness":{
				"baseColorTexture":{
					"index":0
				},
				"metallicFactor":0,
				"roughnessFactor":0.5
			}
		}
	],
	"meshes":[
		{
			"name":"Cube",
			"primitives":[
				{
					"attributes":{
						"POSITION":0,
						"TEXCOORD_0":1,
						"NORMAL":2
					},
					"indices":3,
					"material":0
				}
			]
		}
	],
	"textures":[
		{
			"sampler":0,
			"source":0
		}
	],
	"images":[
		{
			"bufferView":4,
			"mimeType":"image/png",
			"name":"boardfix"
		}
	],
	"accessors":[
		{
			"bufferView":0,
			"componentType":5126,
			"count":2025,
			"max":[
				69.65992736816406,
				16,
				1.6423794031143188
			],
			"min":[
				-9.705177307128906,
				-1,
				-39.643470764160156
			],
			"type":"VEC3"
		},
		{
			"bufferView":1,
			"componentType":5126,
			"count":2025,
			"type":"VEC2"
		},
		{
			"bufferView":2,
			"componentType":5126,
			"count":2025,
			"type":"VEC3"
		},
		{
			"bufferView":3,
			"componentType":5123,
			"count":3876,
			"type":"SCALAR"
		}
	],
	"bufferViews":[
		{
			"buffer":0,
			"byteLength":24300,
			"byteOffset":0,
			"target":34962
		},
		{
			"buffer":0,
			"byteLength":16200,
			"byteOffset":24300,
			"target":34962
		},
		{
			"buffer":0,
			"byteLength":24300,
			"byteOffset":40500,
			"target":34962
		},
		{
			"buffer":0,
			"byteLength":7752,
			"byteOffset":64800,
			"target":34963
		},
		{
			"buffer":0,
			"byteLength":2212574,
			"byteOffset":72552
		}
	],
	"samplers":[
		{
			"magFilter":9729,
			"minFilter":9987
		}
	],
	"buffers":[
		{
			"byteLength":2285128,
			"uri":"data:application/octet-stream;base64,"
		}
	]
}
