{
	"asset":{
		"generator":"Khronos glTF Blender I/O v3.5.30",
		"version":"2.0"
	},
	"scene":0,
	"scenes":[
		{
			"name":"Scene",
			"nodes":[
				0,
				1
			]
		}
	],
	"nodes":[
		{
			"mesh":0,
			"name":"Cylinder",
			"translation":[
				0,
				0.6598661541938782,
				0
			]
		},
		{
			"mesh":1,
			"name":"Plane",
			"rotation":[
				-0.7071068286895752,
				0,
				0,
				0.7071068286895752
			],
			"translation":[
				0.20573249459266663,
				1.082672357559204,
				0
			]
		}
	],
	"materials":[
		{
			"doubleSided":true,
			"name":"Material.002",
			"pbrMetallicRoughness":{
				"baseColorTexture":{
					"index":0
				},
				"metallicFactor":0,
				"roughnessFactor":0.5
			}
		},
		{
			"doubleSided":true,
			"name":"Material.001",
			"pbrMetallicRoughness":{
				"baseColorFactor":[
					0.800000011920929,
					0.800000011920929,
					0.800000011920929,
					1
				],
				"metallicFactor":0,
				"roughnessFactor":0.5
			}
		}
	],
	"meshes":[
		{
			"name":"Cylinder",
			"primitives":[
				{
					"attributes":{
						"POSITION":0,
						"TEXCOORD_0":1,
						"NORMAL":2
					},
					"indices":3,
					"material":0
				}
			]
		},
		{
			"name":"Plane",
			"primitives":[
				{
					"attributes":{
						"POSITION":4,
						"TEXCOORD_0":5,
						"NORMAL":6
					},
					"indices":7,
					"material":1
				}
			]
		}
	],
	"textures":[
		{
			"sampler":0,
			"source":0
		}
	],
	"images":[
		{
			"bufferView":4,
			"mimeType":"image/jpeg",
			"name":"IMG-20230425-WA0007"
		}
	],
	"accessors":[
		{
			"bufferView":0,
			"componentType":5126,
			"count":128,
			"max":[
				0.04187064617872238,
				0.6389716267585754,
				0.04187064617872238
			],
			"min":[
				-0.04187064617872238,
				-0.6582023501396179,
				-0.04187064617872238
			],
			"type":"VEC3"
		},
		{
			"bufferView":1,
			"componentType":5126,
			"count":128,
			"type":"VEC2"
		},
		{
			"bufferView":2,
			"componentType":5126,
			"count":128,
			"type":"VEC3"
		},
		{
			"bufferView":3,
			"componentType":5123,
			"count":276,
			"type":"SCALAR"
		},
		{
			"bufferView":5,
			"componentType":5126,
			"count":3,
			"max":[
				0.3420599400997162,
				3.1865525329521915e-08,
				0.18812330067157745
			],
			"min":[
				-0.2072145640850067,
				-3.6129019775898996e-08,
				-0.09406165778636932
			],
			"type":"VEC3"
		},
		{
			"bufferView":6,
			"componentType":5126,
			"count":3,
			"type":"VEC2"
		},
		{
			"bufferView":7,
			"componentType":5126,
			"count":3,
			"type":"VEC3"
		},
		{
			"bufferView":8,
			"componentType":5123,
			"count":3,
			"type":"SCALAR"
		}
	],
	"bufferViews":[
		{
			"buffer":0,
			"byteLength":1536,
			"byteOffset":0,
			"target":34962
		},
		{
			"buffer":0,
			"byteLength":1024,
			"byteOffset":1536,
			"target":34962
		},
		{
			"buffer":0,
			"byteLength":1536,
			"byteOffset":2560,
			"target":34962
		},
		{
			"buffer":0,
			"byteLength":552,
			"byteOffset":4096,
			"target":34963
		},
		{
			"buffer":0,
			"byteLength":95740,
			"byteOffset":4648
		},
		{
			"buffer":0,
			"byteLength":36,
			"byteOffset":100388,
			"target":34962
		},
		{
			"buffer":0,
			"byteLength":24,
			"byteOffset":100424,
			"target":34962
		},
		{
			"buffer":0,
			"byteLength":36,
			"byteOffset":100448,
			"target":34962
		},
		{
			"buffer":0,
			"byteLength":6,
			"byteOffset":100484,
			"target":34963
		}
	],
	"samplers":[
		{
			"magFilter":9729,
			"minFilter":9987
		}
	],
	"buffers":[
		{
			"byteLength":100492,
			"uri":"data:application/octet-stream;base64,"
		}
	]
}
